<?xml version="1.0" encoding="UTF-8"?>
<svg id="Layer_1" data-name="Layer 1" xmlns="http://www.w3.org/2000/svg" viewBox="0 0 248.61 326.26">
  <defs>
    <style>
      .cls-1 {
        fill: #254c39;
        stroke-width: 0px;
      }
    </style>
  </defs>
  <polygon class="cls-1" points="0 0 0 1.58 .02 1.58 0 0"/>
  <path class="cls-1" d="m59.32,156.81c18.97,3.87,44.9,2.19,44.9,2.19C242.03,142.61,248.61,7.39,248.61,7.39c-147.48,1.55-161.03,135.87-161.03,135.87h-5.81s.39-72.39,0-101.03c-.39-28.65,20.9-37.55,20.9-37.55V1.58H.02l.98,83.23c3.77,45.68,39.35,68.13,58.32,72Z"/>
  <polygon class="cls-1" points="0 326.26 .02 324.68 0 324.68 0 326.26"/>
  <path class="cls-1" d="m104.23,167.26s-25.94-1.68-44.9,2.19c-18.97,3.87-54.55,26.32-58.32,72L.02,324.68h102.66v-3.1s-21.29-8.9-20.9-37.55c.39-28.65,0-101.03,0-101.03h5.81s13.55,134.32,161.03,135.87c0,0-6.58-135.23-144.39-151.61Z"/>
</svg>