<?xml version="1.0" encoding="UTF-8"?>
<svg id="Layer_1" data-name="Layer 1" xmlns="http://www.w3.org/2000/svg" viewBox="0 0 253.75 328.1">
  <defs>
    <style>
      .cls-1 {
        fill: none;
        stroke: #254c39;
        stroke-miterlimit: 10;
        stroke-width: 5px;
      }
    </style>
  </defs>
  <polygon class="cls-1" points="2.51 .92 2.51 2.5 2.53 2.5 2.51 .92"/>
  <path class="cls-1" d="m61.83,157.73c18.97,3.87,44.9,2.19,44.9,2.19C244.54,143.53,251.12,8.31,251.12,8.31c-147.48,1.55-161.03,135.87-161.03,135.87h-5.81s.39-72.39,0-101.03c-.39-28.65,20.9-37.55,20.9-37.55v-3.1H2.53l.98,83.23c3.77,45.68,39.35,68.13,58.32,72Z"/>
  <polygon class="cls-1" points="2.51 327.18 2.53 325.6 2.51 325.6 2.51 327.18"/>
  <path class="cls-1" d="m106.74,168.18s-25.94-1.68-44.9,2.19c-18.97,3.87-54.55,26.32-58.32,72l-.98,83.23h102.66v-3.1s-21.29-8.9-20.9-37.55c.39-28.65,0-101.03,0-101.03h5.81s13.55,134.32,161.03,135.87c0,0-6.58-135.23-144.39-151.61Z"/>
</svg>